PathFileType	4	(X/Y/Z)	../Python\running\Running03\task.trc
DataRate	CameraRate	NumFrames	NumMarkers	Units	OrigDataRate	OrigDataStartFrame	OrigNumFrames
200.000000	200.000000	6	30	mm	200.000000	148	198
Frame#	Time	C7			RBAK			CLAV			STRN			RASI			RPSI			LASI			PE01			RTH2			RTH3			RD5M			RTOE			LTH2			LTH3			LTB2			LTB3			LHEE			LTOE			LD5M			RHEE			RTH1			RTB2			LPSI			T10			RTB1			PE03			RTB3			PE02			LTH1			LTB1			
		X1	Y1	Z1	X2	Y2	Z2	X3	Y3	Z3	X4	Y4	Z4	X5	Y5	Z5	X6	Y6	Z6	X7	Y7	Z7	X8	Y8	Z8	X9	Y9	Z9	X10	Y10	Z10	X11	Y11	Z11	X12	Y12	Z12	X13	Y13	Z13	X14	Y14	Z14	X15	Y15	Z15	X16	Y16	Z16	X17	Y17	Z17	X18	Y18	Z18	X19	Y19	Z19	X20	Y20	Z20	X21	Y21	Z21	X22	Y22	Z22	X23	Y23	Z23	X24	Y24	Z24	X25	Y25	Z25	X26	Y26	Z26	X27	Y27	Z27	X28	Y28	Z28	X29	Y29	Z29	X30	Y30	Z30	

149	0.74	1128.780029296875	1358.381713867188	144.0645904541016	1124.603881835938	1287.076293945313	282.3608398437501	1239.528198242188	1263.749389648438	115.1344070434571	1279.794555664063	1081.6845703125	135.6952056884766	1214.208618164063	865.3152465820317	307.9493408203126	1041.101196289063	958.9140625000005	235.6656188964845	1234.073608398438	881.4135131835942	90.77043914794925	1057.366455078125	983.875366210938	195.0518951416017	1022.311401367188	524.844665527344	298.3426818847657	1067.7041015625	565.3388671875002	309.3713684082032	604.5041503906252	195.7960510253907	215.3587493896486	631.717712402344	162.4411010742188	175.3149108886719	1240.506469726563	565.9113769531252	51.9486999511719	1296.06884765625	620.8468017578127	36.66279220581056	1343.298461914063	230.7161865234376	68.28632354736331	1372.126953125	271.0674743652345	69.10749053955081	1359.88623046875	66.77689361572268	127.828239440918	1540.933715820313	61.3866882324219	141.1268157958985	1512.01318359375	36.25161361694337	94.10809326171878	618.0335083007815	332.4310913085939	131.0681304931641	1033.586547851563	602.092224121094	316.2569885253907	804.087280273438	391.6855773925784	251.0474548339845	1040.06787109375	950.8594360351567	150.5544891357422	1064.88525390625	1079.238891601563	199.9566192626954	862.398071289063	373.824432373047	258.8385009765626	1027.430541992188	934.8166503906255	159.5127258300782	790.605834960938	344.6847229003907	238.467987060547	1020.243713378907	930.8928222656255	209.215789794922	1246.595947265625	624.452819824219	32.94710540771486	1322.768188476563	306.4329223632814	57.46684646606448	
150	0.745	1145.6103515625	1355.487670898438	143.2339172363282	1140.970825195313	1284.555786132813	281.6986083984376	1256.553955078125	1260.939453125	115.0298767089844	1296.553833007813	1078.596557617188	136.0332336425782	1231.830078125	863.4108276367192	307.8458251953126	1057.561401367188	955.532104492188	235.2571105957032	1250.806396484375	878.5025024414067	90.09600067138675	1073.82470703125	980.3438110351567	194.5066070556642	1044.387084960938	520.4497070312502	300.0877685546876	1089.358276367188	561.5146484375002	310.5277099609376	622.2108154296877	202.3348693847657	215.6935119628907	649.3813476562502	168.0120086669922	176.4803161621094	1259.339965820313	563.9224243164065	52.27239608764651	1314.216064453125	619.5186767578127	36.78292083740236	1355.006469726563	227.5432128906251	69.30117797851565	1384.932861328125	267.1832885742189	70.0478210449219	1366.92333984375	62.86191558837893	128.7319793701172	1548.169921875001	55.2326354980469	142.5363769531251	1518.923217773438	31.20895767211915	94.64284515380862	637.204284667969	337.5982666015626	129.5668029785157	1054.865478515625	597.7750244140627	317.8478088378907	824.8584594726567	392.6343688964846	251.1320190429689	1056.655517578125	946.9204101562505	150.1818084716797	1081.6005859375	1076.40966796875	199.5680694580079	882.3871459960942	373.1489868164064	259.7815551757814	1043.948852539063	930.7505493164067	159.469467163086	810.0228881835942	346.0181274414064	238.7788848876954	1037.035034179688	927.161499023438	209.3095245361329	1264.730590820313	622.4650878906252	33.19004440307619	1336.727294921875	303.8069763183595	57.9454154968262	
151	0.75	1162.452514648438	1352.434326171875	142.4023895263672	1157.25341796875	1281.865356445313	281.0140991210939	1273.6171875	1257.875732421875	114.9918746948243	1313.302124023438	1075.141723632813	136.4097747802735	1249.403564453125	861.237670898438	307.6539306640626	1073.90966796875	951.6858520507817	234.9039154052736	1267.471313476563	875.403686523438	89.2621994018555	1090.12451171875	976.4368286132817	194.0708007812501	1066.616455078125	515.8288574218752	301.8804931640626	1111.10986328125	557.504577636719	311.7705993652345	640.7670898437502	208.5291137695314	216.2868499755861	667.8709106445315	173.2642364501954	177.8892669677735	1278.085327148438	561.8693847656252	52.52558135986331	1332.250366210938	618.2175292968752	37.080623626709	1365.881713867188	224.2518615722657	70.44248962402347	1397.034790039063	263.0915832519532	71.03363037109378	1372.732177734375	58.76523590087893	129.6325683593751	1554.287109375001	49.56739807128909	143.9053649902344	1524.690673828125	26.74669456481935	94.90058135986331	656.988220214844	342.3760986328126	128.2979278564454	1076.215576171875	593.2558593750002	319.4065551757814	846.117309570313	393.3040771484377	251.371063232422	1073.158569335938	942.6624145507817	149.8900909423829	1098.299926757813	1073.380004882813	199.2327728271486	902.8249511718755	372.2446594238282	260.8758850097657	1060.381469726563	926.345092773438	159.4597625732422	829.9750366210942	347.0999755859376	239.2711944580079	1053.70361328125	923.0139770507817	209.4173431396486	1282.782348632813	620.452331542969	33.4795379638672	1350.113037109375	301.0504760742189	58.45428085327151	
152	0.755	1179.310791015625	1349.241577148438	141.5717468261719	1173.452026367188	1279.02001953125	280.3108825683595	1290.719482421875	1254.563110351563	115.0205535888672	1330.043334960938	1071.338500976563	136.8308715820313	1266.917114257813	858.793090820313	307.3623352050782	1090.154296875	947.3855590820317	234.6305999755861	1284.052368164063	872.1531372070317	88.26776885986331	1106.237548828125	972.196899414063	193.7808380126954	1088.985717773438	510.9795532226565	303.6918945312501	1132.94580078125	553.304138183594	313.0791320800782	660.1538085937502	214.3460693359376	217.1292724609376	687.1553955078127	178.1710968017579	179.5153045654297	1296.662841796875	559.7344360351565	52.69215774536136	1350.130737304688	616.8775024414065	37.52426528930665	1375.952026367188	220.9877319335939	71.69199371337893	1408.454223632813	258.9177856445314	72.05390930175784	1377.386474609375	54.64531707763675	130.5189971923829	1559.331176757813	44.65210723876955	145.2547302246094	1529.397583007813	23.04818153381348	94.93411254882815	677.3812255859377	346.7532348632814	127.2865753173829	1097.621459960938	588.5401000976565	320.8953247070314	867.879028320313	393.6611328125002	251.7839965820314	1089.5654296875	938.1416625976567	149.7048034667969	1114.982666015625	1070.1708984375	198.9549407958986	923.7424316406255	371.0829467773439	262.1124877929689	1076.721801757813	921.6481323242192	159.5022735595704	850.4856567382817	347.8917846679689	239.9380950927736	1070.2490234375	918.4773559570317	209.5518035888673	1300.70654296875	618.3929443359377	33.77997207641603	1362.944946289063	298.2743225097657	58.99619293212893	
153	0.76	1196.189697265625	1345.932373046875	140.7449340820313	1189.566528320313	1276.036499023438	279.5932922363282	1307.861694335938	1251.011108398438	115.1169128417969	1346.779907226563	1067.2109375	137.3033447265626	1284.3583984375	856.0803222656255	306.9609985351564	1106.302734375	942.6533203125005	234.4633789062501	1300.531616210938	868.7929077148442	87.11569976806643	1122.140014648438	967.6748046875005	193.6730346679689	1111.482788085938	505.9078063964846	305.4935607910157	1154.857543945313	548.9143066406252	314.4317321777345	680.357360839844	219.7492218017579	218.2127990722657	707.215026855469	182.7032623291016	181.3348083496094	1314.992797851563	557.5019531250002	52.76458740234378	1367.818237304688	615.425964355469	38.06999588012697	1385.27001953125	217.9080047607423	73.01079559326175	1419.230590820313	254.792694091797	73.09484863281253	1380.974731445313	50.66833496093753	131.3782348632813	1563.346069335938	40.66265869140626	146.5916748046876	1533.123657226563	20.21441459655762	94.814079284668	698.3762207031252	350.7178344726564	126.5576324462891	1119.075439453125	583.6368408203127	322.2845458984376	890.1571655273442	393.6753234863284	252.3884887695314	1105.863891601563	933.4238281250005	149.6503906250001	1131.646728515625	1066.806640625	198.7362365722657	945.1705932617192	369.6391601562501	263.4790344238282	1092.960571289063	916.7172851562505	159.6186218261719	871.5766601562505	348.3577575683595	240.7710418701173	1086.670288085938	913.5903320312505	209.7299804687501	1318.458129882813	616.264099121094	34.05727767944337	1375.26513671875	295.6011962890626	59.56830596923831	
154	0.765	1213.093627929688	1342.532104492188	139.9261627197266	1205.597045898438	1272.933837890625	278.8661193847657	1325.043579101563	1247.235107421875	115.2827682495118	1363.512329101563	1062.7890625	137.8342590332032	1301.714965820313	853.1093750000005	306.4419860839845	1122.361328125	937.5245971679692	234.4300842285157	1316.891357421875	865.3698730468755	85.81397247314456	1137.8173828125	962.9287719726567	193.7820587158204	1134.099853515625	500.6318359375002	307.2590637207032	1176.84228515625	544.3459472656252	315.8059997558595	701.3728637695315	224.6970520019532	219.5319976806642	728.0445556640627	186.8281402587891	183.3280944824219	1332.998046875	555.1611938476565	52.74326324462893	1385.274780273438	613.7910766601565	38.66194534301759	1393.918334960938	215.1667480468751	74.33737945556643	1429.422241210938	250.8422698974611	74.13987731933597	1383.603637695313	46.99593353271486	132.1959838867188	1566.386352539063	37.66939926147462	147.9023437500001	1535.952392578125	18.25494003295899	94.61511993408206	719.9609375000002	354.2570190429689	126.1364059448243	1140.577026367188	578.561706542969	323.554901123047	912.9629516601567	393.3217773437502	253.1995239257814	1122.042114257813	928.5825195312505	149.7495269775391	1148.288940429688	1063.315551757813	198.5760192871095	967.1387329101567	367.894744873047	264.9592590332032	1109.086791992188	911.6188964843755	159.8331909179688	893.2675781250005	348.4670410156251	241.7597656250001	1102.968017578125	908.4042358398442	209.9736633300782	1335.992309570313	614.0449218750002	34.28111648559572	1387.138427734375	293.1531677246095	60.15953063964847	
